<?xml version="1.0" encoding="UTF-8"?>
<svg width="1200pt" height="1200pt" version="1.1" viewBox="0 0 1200 1200" xmlns="http://www.w3.org/2000/svg">
 <path d="m1087.9 384.91c0-149.76-121.92-271.56-271.68-271.56-88.672 0-167.51 42.715-217.19 108.59h-0.019532c-1.8008-0.12109-3.7188-0.12109-5.5195-0.12109-212.76 0-385.92 173.16-385.92 385.92 0 84.121 27.121 162 72.961 225.48 0.96094 1.3203 1.9219 2.6406 2.8789 3.9609l-75.238 75.121-96 174.36 175.2-92.281 76.801-76.68c1.1992 0.96094 2.5195 1.918 3.8398 2.8789 63.48 45.84 141.36 72.961 225.48 72.961 212.76 0 385.8-173.16 385.8-385.8 0-1.9141 0-3.707-0.12109-5.6211 0.003906-0.003906 0.003906-0.003906 0.007813-0.003906 66-49.559 108.72-128.4 108.72-217.2zm-271.68-247.56c136.56 0 247.68 111 247.68 247.56 0 75-33.48 142.32-86.281 187.56-0.003906 0.003906-0.003906 0.003906-0.007812 0.003906v-0.019531c-7.1992 6.4805-14.879 12.238-22.801 17.52v0.019531c-33.84 23.035-73.676 37.914-116.63 41.516h-0.12109-0.015625l0.007813-0.007812c-7.1992 0.71875-14.52 1.0781-21.84 1.0781-4.3203 0-8.5195-0.12109-12.719-0.35938h-0.12109l-0.007812 0.007812c-41.035-2.043-79.43-14.16-112.91-34.078-7.082-4.0781-13.922-8.6406-20.52-13.441-20.52-15.121-38.52-33.121-53.398-53.641-4.918-6.4805-9.3594-13.32-13.559-20.281-19.801-33.48-32.039-71.879-34.078-113.04-0.23828-4.1992-0.35938-8.5195-0.35938-12.84 0-7.3203 0.35938-14.52 1.082-21.719v-0.12109c3.6016-43.082 18.48-82.801 41.52-116.76 5.2812-7.918 11.16-15.602 17.52-22.801 45.359-52.801 112.68-86.16 187.56-86.16zm-541.57 836.62-103.2 54.359 54.961-100.32 72.121-72c14.16 16.918 30 32.762 47.039 47.039zm318.84-4.4375c-77.52 0-149.4-24.48-208.32-66.121-1.3203-0.83984-2.5195-1.8008-3.8398-2.7617-5.2812-3.7188-10.441-7.6797-15.48-11.879-1.0781-0.83984-2.1602-1.8008-3.2383-2.7617-17.16-14.16-33-29.879-47.039-47.039-1.1992-1.1992-2.2812-2.5195-3.2383-3.7188-4.082-5.0391-8.0391-10.082-11.641-15.359-1.0781-1.3203-2.0391-2.6406-2.8789-3.9609-41.762-58.918-66.238-130.8-66.238-208.2 0-195.96 156.6-356.04 351.24-361.68h0.015625c-0.003906 0.003906-0.007813 0.011718-0.007813 0.015624-24.359 40.68-38.281 88.199-38.281 138.84 0 1.0742 0 2.1484 0.12109 3.2266l-27.969 27.969c-14.879 14.039-60.238 50.039-93.359 47.16-6.6016-0.35938-12.48 4.3203-12.961 10.918-0.60156 6.6016 4.3203 12.48 10.922 12.961 1.8008 0.12109 3.6016 0.23828 5.5195 0.23828 48.961 0 103.92-51.602 106.56-54.121l13.445-13.445v0.015625c5.0391 39.48 18.602 76.199 38.641 108.48 4.3203 6.9609 9 13.559 13.801 20.039 15.359 20.16 33.359 38.281 53.52 53.52 6.4805 4.8008 13.199 9.4805 20.16 13.801 32.277 20.039 68.992 33.598 108.35 38.637l-13.676 13.676c-2.2812 2.5195-57.719 61.441-53.641 111.84 0.48047 6.2383 5.7617 11.039 12 11.039 0.23828 0 0.60156 0 0.96094-0.12109 6.6016-0.48047 11.52-6.2383 10.918-12.84-2.6406-32.879 33.238-78.602 47.039-93.121l28.191-28.312h0.015625 0.12109c1.082 0.12109 1.918 0.12109 3 0.12109 50.637 0 98.152-13.918 138.83-38.273-5.5312 194.63-165.61 351.22-361.56 351.22z"/>
</svg>
